<svg width="16" height="16" viewBox="0 0 16 16" fill="none" xmlns="http://www.w3.org/2000/svg">
<path fill-rule="evenodd" clip-rule="evenodd" d="M2 2C2 1.44772 2.44772 1 3 1H10.5858C10.851 1 11.1054 1.10536 11.2929 1.29289L13.7071 3.70711C13.8946 3.89464 14 4.149 14 4.41421V14C14 14.5523 13.5523 15 13 15H3C2.44772 15 2 14.5523 2 14V2Z" fill="white"/>
<path fill-rule="evenodd" clip-rule="evenodd" d="M7.00391 9.80469L6.63477 11H4.98682L7.3335 4.60156H8.78369L11.1479 11H9.49121L9.11768 9.80469H7.00391ZM7.37305 8.61377H8.74854L8.05859 6.39453L7.37305 8.61377Z" fill="#8D40FF"/>
</svg>
